<svg xmlns="http://www.w3.org/2000/svg" xmlns:xlink="http://www.w3.org/1999/xlink" width="2000" zoomAndPan="magnify" viewBox="0 0 1500 1499.999933" height="2000" preserveAspectRatio="xMidYMid meet" version="1.0"><defs><g/><clipPath id="e251525af1"><path d="M 54.570312 685.722656 L 347.949219 685.722656 L 347.949219 765.066406 L 54.570312 765.066406 Z M 54.570312 685.722656 " clip-rule="nonzero"/></clipPath><clipPath id="f3e6a7a80e"><path d="M 0.570312 0.722656 L 293.949219 0.722656 L 293.949219 80.066406 L 0.570312 80.066406 Z M 0.570312 0.722656 " clip-rule="nonzero"/></clipPath><clipPath id="3849eeaeaa"><rect x="0" width="294" y="0" height="81"/></clipPath><clipPath id="c0f34b2ae6"><path d="M 161.597656 578.707031 L 240.941406 578.707031 L 240.941406 872.085938 L 161.597656 872.085938 Z M 161.597656 578.707031 " clip-rule="nonzero"/></clipPath><clipPath id="a1a6599e2a"><path d="M 0.597656 0.707031 L 79.941406 0.707031 L 79.941406 294.085938 L 0.597656 294.085938 Z M 0.597656 0.707031 " clip-rule="nonzero"/></clipPath><clipPath id="072373451c"><rect x="0" width="80" y="0" height="295"/></clipPath></defs><g fill="#1800ad" fill-opacity="1"><g transform="translate(414.30454, 790.271912)"><g><path d="M 42.5 1.75 C 32.207031 1.75 23.65625 -0.203125 16.84375 -4.109375 C 10.039062 -8.015625 5.09375 -13.257812 2 -19.84375 L 15.515625 -36.28125 L 17.59375 -36.28125 C 19.8125 -30.96875 22.953125 -26.773438 27.015625 -23.703125 C 31.085938 -20.628906 35.804688 -19.09375 41.171875 -19.09375 C 47.203125 -19.09375 51.679688 -20.847656 54.609375 -24.359375 C 57.546875 -27.878906 59.015625 -33.59375 59.015625 -41.5 L 59.015625 -121.359375 L 82.921875 -121.359375 L 82.921875 -41.09375 C 82.921875 -26.425781 79.585938 -15.617188 72.921875 -8.671875 C 66.253906 -1.722656 56.113281 1.75 42.5 1.75 Z M 42.5 1.75 "/></g></g></g><g fill="#1800ad" fill-opacity="1"><g transform="translate(512.24925, 790.271912)"><g><path d="M 53.203125 1.75 C 44.242188 1.75 36.375 -0.0859375 29.59375 -3.765625 C 22.8125 -7.453125 17.550781 -12.847656 13.8125 -19.953125 C 10.082031 -27.066406 8.21875 -35.660156 8.21875 -45.734375 C 8.21875 -55.804688 10.082031 -64.410156 13.8125 -71.546875 C 17.550781 -78.691406 22.8125 -84.101562 29.59375 -87.78125 C 36.375 -91.457031 44.242188 -93.296875 53.203125 -93.296875 C 62.171875 -93.296875 70.046875 -91.457031 76.828125 -87.78125 C 83.609375 -84.101562 88.878906 -78.691406 92.640625 -71.546875 C 96.398438 -64.410156 98.28125 -55.804688 98.28125 -45.734375 C 98.28125 -35.660156 96.398438 -27.066406 92.640625 -19.953125 C 88.878906 -12.847656 83.609375 -7.453125 76.828125 -3.765625 C 70.046875 -0.0859375 62.171875 1.75 53.203125 1.75 Z M 53.203125 -17.765625 C 67.429688 -17.765625 74.546875 -27.085938 74.546875 -45.734375 C 74.546875 -55.421875 72.71875 -62.519531 69.0625 -67.03125 C 65.40625 -71.539062 60.117188 -73.796875 53.203125 -73.796875 C 38.984375 -73.796875 31.875 -64.441406 31.875 -45.734375 C 31.875 -27.085938 38.984375 -17.765625 53.203125 -17.765625 Z M 53.203125 -17.765625 "/></g></g></g><g fill="#1800ad" fill-opacity="1"><g transform="translate(618.660366, 790.271912)"><g><path d="M 64 1.75 C 52.320312 1.75 43.632812 -2.625 37.9375 -11.375 L 36.1875 -11.046875 L 36.1875 0 L 13.203125 0 L 13.203125 -128.328125 L 36.1875 -128.328125 L 36.1875 -80.765625 L 37.9375 -80.4375 C 41.09375 -84.8125 44.8125 -88.046875 49.09375 -90.140625 C 53.382812 -92.242188 58.519531 -93.296875 64.5 -93.296875 C 71.914062 -93.296875 78.390625 -91.550781 83.921875 -88.0625 C 89.453125 -84.582031 93.765625 -79.285156 96.859375 -72.171875 C 99.960938 -65.066406 101.515625 -56.253906 101.515625 -45.734375 C 101.515625 -35.328125 99.910156 -26.566406 96.703125 -19.453125 C 93.492188 -12.347656 89.066406 -7.035156 83.421875 -3.515625 C 77.773438 -0.00390625 71.300781 1.75 64 1.75 Z M 57.03125 -17.765625 C 63.78125 -17.765625 68.925781 -20.019531 72.46875 -24.53125 C 76.007812 -29.039062 77.78125 -36.109375 77.78125 -45.734375 C 77.78125 -55.421875 76.007812 -62.519531 72.46875 -67.03125 C 68.925781 -71.539062 63.78125 -73.796875 57.03125 -73.796875 C 50.550781 -73.796875 45.414062 -71.46875 41.625 -66.8125 C 37.832031 -62.164062 35.9375 -55.140625 35.9375 -45.734375 C 35.9375 -36.328125 37.832031 -29.3125 41.625 -24.6875 C 45.414062 -20.070312 50.550781 -17.765625 57.03125 -17.765625 Z M 57.03125 -17.765625 "/></g></g></g><g fill="#1800ad" fill-opacity="1"><g transform="translate(728.308648, 790.271912)"><g><path d="M 64 1.75 C 52.320312 1.75 43.632812 -2.625 37.9375 -11.375 L 36.1875 -11.046875 L 36.1875 0 L 13.203125 0 L 13.203125 -128.328125 L 36.1875 -128.328125 L 36.1875 -80.765625 L 37.9375 -80.4375 C 41.09375 -84.8125 44.8125 -88.046875 49.09375 -90.140625 C 53.382812 -92.242188 58.519531 -93.296875 64.5 -93.296875 C 71.914062 -93.296875 78.390625 -91.550781 83.921875 -88.0625 C 89.453125 -84.582031 93.765625 -79.285156 96.859375 -72.171875 C 99.960938 -65.066406 101.515625 -56.253906 101.515625 -45.734375 C 101.515625 -35.328125 99.910156 -26.566406 96.703125 -19.453125 C 93.492188 -12.347656 89.066406 -7.035156 83.421875 -3.515625 C 77.773438 -0.00390625 71.300781 1.75 64 1.75 Z M 57.03125 -17.765625 C 63.78125 -17.765625 68.925781 -20.019531 72.46875 -24.53125 C 76.007812 -29.039062 77.78125 -36.109375 77.78125 -45.734375 C 77.78125 -55.421875 76.007812 -62.519531 72.46875 -67.03125 C 68.925781 -71.539062 63.78125 -73.796875 57.03125 -73.796875 C 50.550781 -73.796875 45.414062 -71.46875 41.625 -66.8125 C 37.832031 -62.164062 35.9375 -55.140625 35.9375 -45.734375 C 35.9375 -36.328125 37.832031 -29.3125 41.625 -24.6875 C 45.414062 -20.070312 50.550781 -17.765625 57.03125 -17.765625 Z M 57.03125 -17.765625 "/></g></g></g><g fill="#1800ad" fill-opacity="1"><g transform="translate(837.956909, 790.271912)"><g><path d="M 90.484375 -40.59375 L 31.625 -40.59375 C 32.289062 -32.625 34.5625 -26.828125 38.4375 -23.203125 C 42.3125 -19.578125 47.59375 -17.765625 54.28125 -17.765625 C 59.539062 -17.765625 63.800781 -18.742188 67.0625 -20.703125 C 70.332031 -22.671875 72.960938 -25.648438 74.953125 -29.640625 L 76.703125 -29.640625 L 91.96875 -19.84375 C 88.976562 -13.414062 84.46875 -8.207031 78.4375 -4.21875 C 72.40625 -0.238281 64.351562 1.75 54.28125 1.75 C 44.820312 1.75 36.644531 -0.046875 29.75 -3.640625 C 22.863281 -7.242188 17.550781 -12.597656 13.8125 -19.703125 C 10.082031 -26.816406 8.21875 -35.492188 8.21875 -45.734375 C 8.21875 -56.140625 10.179688 -64.910156 14.109375 -72.046875 C 18.035156 -79.191406 23.347656 -84.519531 30.046875 -88.03125 C 36.742188 -91.539062 44.269531 -93.296875 52.625 -93.296875 C 65.570312 -93.296875 75.488281 -89.863281 82.375 -83 C 89.269531 -76.144531 92.71875 -66.078125 92.71875 -52.796875 C 92.71875 -47.984375 92.550781 -44.25 92.21875 -41.59375 Z M 70.71875 -55.453125 C 70.5 -62.421875 68.878906 -67.492188 65.859375 -70.671875 C 62.847656 -73.859375 58.4375 -75.453125 52.625 -75.453125 C 41.007812 -75.453125 34.175781 -68.785156 32.125 -55.453125 Z M 70.71875 -55.453125 "/></g></g></g><g fill="#1800ad" fill-opacity="1"><g transform="translate(937.478705, 790.271912)"><g><path d="M 13.203125 0 L 13.203125 -91.5625 L 35.53125 -91.5625 L 35.53125 -77.9375 L 37.265625 -77.609375 C 39.484375 -82.703125 42.390625 -86.4375 45.984375 -88.8125 C 49.578125 -91.195312 53.953125 -92.390625 59.109375 -92.390625 C 64.304688 -92.390625 68.257812 -91.503906 70.96875 -89.734375 L 67.078125 -69.890625 L 65.328125 -69.5625 C 63.835938 -70.164062 62.398438 -70.601562 61.015625 -70.875 C 59.628906 -71.15625 57.941406 -71.296875 55.953125 -71.296875 C 49.523438 -71.296875 44.625 -69.039062 41.25 -64.53125 C 37.875 -60.03125 36.1875 -52.796875 36.1875 -42.828125 L 36.1875 0 Z M 13.203125 0 "/></g></g></g><g clip-path="url(#e251525af1)"><g transform="matrix(1, 0, 0, 1, 54, 685)"><g clip-path="url(#3849eeaeaa)"><g clip-path="url(#f3e6a7a80e)"><path fill="#1800ad" d="M 293.949219 0.722656 L 293.949219 80.066406 L 0.4375 80.066406 L 0.4375 0.722656 Z M 293.949219 0.722656 " fill-opacity="1" fill-rule="nonzero"/></g></g></g></g><g clip-path="url(#c0f34b2ae6)"><g transform="matrix(1, 0, 0, 1, 161, 578)"><g clip-path="url(#072373451c)"><g clip-path="url(#a1a6599e2a)"><path fill="#0cc0df" d="M 0.597656 0.707031 L 79.941406 0.707031 L 79.941406 294.21875 L 0.597656 294.21875 Z M 0.597656 0.707031 " fill-opacity="1" fill-rule="nonzero"/></g></g></g></g><g fill="#0cc0df" fill-opacity="1"><g transform="translate(1009.318081, 790.271912)"><g><path d="M 37.765625 0 L 15.765625 0 L 15.765625 -121.359375 L 47.15625 -121.359375 L 77.859375 -32.125 L 79.609375 -32.125 L 110.15625 -121.359375 L 140.78125 -121.359375 L 140.78125 0 L 118.03125 0 L 118.03125 -80.1875 L 115.96875 -80.515625 L 87.90625 0 L 67.90625 0 L 39.84375 -80.515625 L 37.765625 -80.1875 Z M 37.765625 0 "/></g></g></g><g fill="#0cc0df" fill-opacity="1"><g transform="translate(1165.946613, 790.271912)"><g><path d="M 90.484375 -40.59375 L 31.625 -40.59375 C 32.289062 -32.625 34.5625 -26.828125 38.4375 -23.203125 C 42.3125 -19.578125 47.59375 -17.765625 54.28125 -17.765625 C 59.539062 -17.765625 63.800781 -18.742188 67.0625 -20.703125 C 70.332031 -22.671875 72.960938 -25.648438 74.953125 -29.640625 L 76.703125 -29.640625 L 91.96875 -19.84375 C 88.976562 -13.414062 84.46875 -8.207031 78.4375 -4.21875 C 72.40625 -0.238281 64.351562 1.75 54.28125 1.75 C 44.820312 1.75 36.644531 -0.046875 29.75 -3.640625 C 22.863281 -7.242188 17.550781 -12.597656 13.8125 -19.703125 C 10.082031 -26.816406 8.21875 -35.492188 8.21875 -45.734375 C 8.21875 -56.140625 10.179688 -64.910156 14.109375 -72.046875 C 18.035156 -79.191406 23.347656 -84.519531 30.046875 -88.03125 C 36.742188 -91.539062 44.269531 -93.296875 52.625 -93.296875 C 65.570312 -93.296875 75.488281 -89.863281 82.375 -83 C 89.269531 -76.144531 92.71875 -66.078125 92.71875 -52.796875 C 92.71875 -47.984375 92.550781 -44.25 92.21875 -41.59375 Z M 70.71875 -55.453125 C 70.5 -62.421875 68.878906 -67.492188 65.859375 -70.671875 C 62.847656 -73.859375 58.4375 -75.453125 52.625 -75.453125 C 41.007812 -75.453125 34.175781 -68.785156 32.125 -55.453125 Z M 70.71875 -55.453125 "/></g></g></g><g fill="#0cc0df" fill-opacity="1"><g transform="translate(1265.468397, 790.271912)"><g><path d="M 45.234375 1.75 C 37.984375 1.75 31.578125 -0.00390625 26.015625 -3.515625 C 20.460938 -7.035156 16.109375 -12.347656 12.953125 -19.453125 C 9.796875 -26.566406 8.21875 -35.328125 8.21875 -45.734375 C 8.21875 -56.191406 9.835938 -64.976562 13.078125 -72.09375 C 16.316406 -79.207031 20.796875 -84.519531 26.515625 -88.03125 C 32.242188 -91.539062 38.875 -93.296875 46.40625 -93.296875 C 52.101562 -93.296875 57.039062 -92.3125 61.21875 -90.34375 C 65.394531 -88.382812 68.921875 -85.332031 71.796875 -81.1875 L 73.546875 -81.59375 L 73.546875 -128.328125 L 96.53125 -128.328125 L 96.53125 0 L 73.546875 0 L 73.546875 -11.875 L 71.796875 -12.203125 C 69.253906 -7.890625 65.769531 -4.484375 61.34375 -1.984375 C 56.914062 0.503906 51.546875 1.75 45.234375 1.75 Z M 52.703125 -17.765625 C 59.179688 -17.765625 64.300781 -20.070312 68.0625 -24.6875 C 71.832031 -29.3125 73.71875 -36.328125 73.71875 -45.734375 C 73.71875 -55.140625 71.832031 -62.164062 68.0625 -66.8125 C 64.300781 -71.46875 59.179688 -73.796875 52.703125 -73.796875 C 45.953125 -73.796875 40.789062 -71.539062 37.21875 -67.03125 C 33.65625 -62.519531 31.875 -55.421875 31.875 -45.734375 C 31.875 -36.109375 33.65625 -29.039062 37.21875 -24.53125 C 40.789062 -20.019531 45.953125 -17.765625 52.703125 -17.765625 Z M 52.703125 -17.765625 "/></g></g></g></svg>